<svg width="15" height="5" viewBox="0 0 15 5" fill="none" xmlns="http://www.w3.org/2000/svg">
<path d="M4.3264 2.54376C4.3264 1.62856 3.5568 0.858956 2.6416 0.858956C1.7264 0.858956 0.9776 1.62856 0.9776 2.54376C0.9776 3.43816 1.7264 4.20776 2.6416 4.20776C3.5568 4.20776 4.3264 3.43816 4.3264 2.54376ZM9.6512 2.54376C9.6512 1.62856 8.8816 0.858956 7.9664 0.858956C7.0512 0.858956 6.3024 1.62856 6.3024 2.54376C6.3024 3.43816 7.0512 4.20776 7.9664 4.20776C8.8816 4.20776 9.6512 3.43816 9.6512 2.54376ZM14.976 2.54376C14.976 1.62856 14.2064 0.858956 13.2912 0.858956C12.376 0.858956 11.6272 1.62856 11.6272 2.54376C11.6272 3.43816 12.376 4.20776 13.2912 4.20776C14.2064 4.20776 14.976 3.43816 14.976 2.54376Z" fill="#70778B"/>
</svg>
